General
Complete name                            : War Horse [2011] 720p BRRip H264 AC3 - CODY.mp4
Format                                   : MPEG-4
Format profile                           : Base Media
Codec ID                                 : isom
File size                                : 2.20 GiB
Duration                                 : 2h 26mn
Overall bit rate mode                    : Variable
Overall bit rate                         : 2 151 Kbps
Encoded date                             : UTC 2012-03-15 14:01:31
Tagged date                              : UTC 2012-03-15 14:01:31

Video
ID                                       : 1
Format                                   : AVC
Format/Info                              : Advanced Video Codec
Format profile                           : High@L4.1
Format settings, CABAC                   : Yes
Format settings, ReFrames                : 4 frames
Codec ID                                 : avc1
Codec ID/Info                            : Advanced Video Coding
Duration                                 : 2h 26mn
Bit rate mode                            : Variable
Bit rate                                 : 1 700 Kbps
Maximum bit rate                         : 20.0 Mbps
Width                                    : 1 280 pixels
Height                                   : 536 pixels
Display aspect ratio                     : 2.40:1
Frame rate mode                          : Constant
Frame rate                               : 23.976 fps
Color space                              : YUV
Chroma subsampling                       : 4:2:0
Bit depth                                : 8 bits
Scan type                                : Progressive
Bits/(Pixel*Frame)                       : 0.103
Stream size                              : 1.74 GiB (79%)
Writing library                          : x264 core 119 r2106 07efeb4
Encoding settings                        : rc=2pass
Encoded date                             : UTC 2012-03-15 14:01:31
Tagged date                              : UTC 2012-03-15 14:02:04

Audio
ID                                       : 2
Format                                   : AC-3
Format/Info                              : Audio Coding 3
Mode extension                           : CM (complete main)
Codec ID                                 : ac-3
Duration                                 : 2h 26mn
Bit rate mode                            : Constant
Bit rate                                 : 448 Kbps
Channel(s)                               : 6 channels
Channel positions                        : Front: L C R, Side: L R, LFE
Sampling rate                            : 48.0 KHz
Bit depth                                : 16 bits
Compression mode                         : Lossy
Stream size                              : 470 MiB (21%)
Encoded date                             : UTC 2012-03-15 14:02:00
Tagged date                              : UTC 2012-03-15 14:02:04



IMDB link:                                 http://www.imdb.com/title/tt1568911/


Subtitles included                       : Romanian


Please seed at least 1,5:1 . This way this torrent has a chance to survive !


Thanks . Enjoy !!


Source was:     War.Horse.2011.1080p.BluRay.x264-SECTOR7    Thanks.
